<svg width="1920" height="1080" viewBox="0 0 1920 1080" fill="none" xmlns="http://www.w3.org/2000/svg">
<g clip-path="url(#clip0_5_2)">
<rect width="1920" height="1080" fill="#F5F5F5"/>
<path fill-rule="evenodd" clip-rule="evenodd" d="M144.169 -204.549C243.84 -209.754 341.934 -161.915 400.644 -81.202C456.634 -4.22791 451.542 95.8544 430.146 188.602C408.829 281.002 372.622 379.325 285.672 417.164C201.207 453.921 112.854 400.544 28.5776 363.358C-61.5389 323.595 -176.614 297.531 -201.466 202.219C-226.69 105.474 -145.518 20.1277 -80.7802 -56.061C-19.5723 -128.095 49.7709 -199.619 144.169 -204.549Z" fill="#EEEEEE"/>
<path fill-rule="evenodd" clip-rule="evenodd" d="M1858.84 610.273C1960.24 615.315 2046.79 681.891 2102.31 766.891C2151.58 842.325 2143.78 933.783 2128.09 1022.51C2110.91 1119.67 2100.25 1234.93 2011.82 1278.7C1922.88 1322.72 1825.2 1259.61 1735.73 1216.69C1646 1173.64 1544.25 1134.56 1513.82 1039.8C1480.94 937.413 1515.65 824.906 1582.99 741.067C1650.04 657.597 1751.91 604.955 1858.84 610.273Z" fill="#EEEEEE"/>
</g>
<defs>
<clipPath id="clip0_5_2">
<rect width="1920" height="1080" fill="white"/>
</clipPath>
</defs>
</svg>
